# xmcd CD database file
#
# Track frame offsets:
#	150
#	12472
#	24376
#	37139
#	48149
#	59467
#	71099
#	86278
#	99549
#	113419
#	124105
#	136092
#	150683
#	166206
#	175571
#	187502
#	202666
#	213005
#	226087
#	237564
#	248783
#	259963
#	271716
#	286428
#	299539
#	311340
#
# Disc length: 4364 seconds
#
# Revision: 0
# Processed by: cddbd v1.5.1PL2 Copyright (c) Steve Scherf et al.
# Submitted via: CDex 1.51
#
DISCID=56110a1a
DTITLE=Nat King Cole - The Unforgettable Sound Of Nat King Cole, CD 1
DYEAR=2005
DGENRE=Jazz
TTITLE0=Unforgettable
TTITLE1=Gone With The Draft
TTITLE2=Route 66
TTITLE3=You're The Cream In My Coffee
TTITLE4=Too Marvellous For Words
TTITLE5=Honeysuckle Rose
TTITLE6=Embraceble You
TTITLE7=What Is This Thing Called Love?
TTITLE8='tis Autum
TTITLE9=Babs
TTITLE10=Early Morning Blues
TTITLE11=That Ain't Right
TTITLE12=Stompin' Down Broadway
TTITLE13=Somebody Loves Me
TTITLE14=Tea For Two
TTITLE15=All For You
TTITLE16=I'm An Errand Boy
TTITLE17=It's Only A Paper Moon
TTITLE18=Straighten Up And Fly Right
TTITLE19=Scotchin' With The Soda
TTITLE20=Katusha
TTITLE21=Loan me Two Till Tuesday
TTITLE22=The Frim Fram Sauce
TTITLE23=It Only Happens Once
TTITLE24=Stop! The Red Light Is On
TTITLE25=The End Of A Beautiful Friendship
EXTD=YEAR: 2005
EXTT0=
EXTT1=
EXTT2=
EXTT3=
EXTT4=
EXTT5=
EXTT6=
EXTT7=
EXTT8=
EXTT9=
EXTT10=
EXTT11=
EXTT12=
EXTT13=
EXTT14=
EXTT15=
EXTT16=
EXTT17=
EXTT18=
EXTT19=
EXTT20=
EXTT21=
EXTT22=
EXTT23=
EXTT24=
EXTT25=
PLAYORDER=
